solid "Cube_1"; Produced by Art of Illusion 2.8.1, Tue Jun 07 07:21:53 EEST 2011
facet normal  0 -1 0
  outer loop
    vertex  3.451695038335 0.15 1
    vertex  2.451695038335 0.15 1
    vertex  2.951695038335 0.15 0.5
  endloop
endfacet
facet normal  0 -1 0
  outer loop
    vertex  3.451695038335 0.15 0
    vertex  3.451695038335 0.15 1
    vertex  2.951695038335 0.15 0.5
  endloop
endfacet
facet normal  0 -1 0
  outer loop
    vertex  2.451695038335 0.15 0
    vertex  3.451695038335 0.15 0
    vertex  2.951695038335 0.15 0.5
  endloop
endfacet
facet normal  0 -1 0
  outer loop
    vertex  2.451695038335 0.15 1
    vertex  2.451695038335 0.15 0
    vertex  2.951695038335 0.15 0.5
  endloop
endfacet
facet normal  1 0 0
  outer loop
    vertex  3.451695038335 0.15 1
    vertex  3.451695038335 0.15 0
    vertex  3.451695038335 0.65 0.5
  endloop
endfacet
facet normal  1 0 0
  outer loop
    vertex  3.451695038335 0.15 0
    vertex  3.451695038335 1.15 0
    vertex  3.451695038335 0.65 0.5
  endloop
endfacet
facet normal  1 0 0
  outer loop
    vertex  3.451695038335 1.15 0
    vertex  3.451695038335 1.15 1
    vertex  3.451695038335 0.65 0.5
  endloop
endfacet
facet normal  1 0 0
  outer loop
    vertex  3.451695038335 1.15 1
    vertex  3.451695038335 0.15 1
    vertex  3.451695038335 0.65 0.5
  endloop
endfacet
facet normal  0 0 1
  outer loop
    vertex  2.451695038335 0.15 1
    vertex  3.451695038335 0.15 1
    vertex  2.951695038335 0.65 1
  endloop
endfacet
facet normal  0 0 1
  outer loop
    vertex  3.451695038335 0.15 1
    vertex  3.451695038335 1.15 1
    vertex  2.951695038335 0.65 1
  endloop
endfacet
facet normal  0 0 1
  outer loop
    vertex  3.451695038335 1.15 1
    vertex  2.451695038335 1.15 1
    vertex  2.951695038335 0.65 1
  endloop
endfacet
facet normal  0 0 1
  outer loop
    vertex  2.451695038335 1.15 1
    vertex  2.451695038335 0.15 1
    vertex  2.951695038335 0.65 1
  endloop
endfacet
facet normal  -1 0 0
  outer loop
    vertex  2.451695038335 0.15 0
    vertex  2.451695038335 0.15 1
    vertex  2.451695038335 0.65 0.5
  endloop
endfacet
facet normal  -1 0 0
  outer loop
    vertex  2.451695038335 0.15 1
    vertex  2.451695038335 1.15 1
    vertex  2.451695038335 0.65 0.5
  endloop
endfacet
facet normal  -1 0 0
  outer loop
    vertex  2.451695038335 1.15 1
    vertex  2.451695038335 1.15 0
    vertex  2.451695038335 0.65 0.5
  endloop
endfacet
facet normal  -1 0 0
  outer loop
    vertex  2.451695038335 1.15 0
    vertex  2.451695038335 0.15 0
    vertex  2.451695038335 0.65 0.5
  endloop
endfacet
facet normal  0 1 0
  outer loop
    vertex  2.451695038335 1.15 1
    vertex  3.451695038335 1.15 1
    vertex  2.951695038335 1.15 0.5
  endloop
endfacet
facet normal  0 1 0
  outer loop
    vertex  3.451695038335 1.15 1
    vertex  3.451695038335 1.15 0
    vertex  2.951695038335 1.15 0.5
  endloop
endfacet
facet normal  0 1 0
  outer loop
    vertex  3.451695038335 1.15 0
    vertex  2.451695038335 1.15 0
    vertex  2.951695038335 1.15 0.5
  endloop
endfacet
facet normal  0 1 0
  outer loop
    vertex  2.451695038335 1.15 0
    vertex  2.451695038335 1.15 1
    vertex  2.951695038335 1.15 0.5
  endloop
endfacet
facet normal  0 0 -1
  outer loop
    vertex  3.451695038335 0.15 0
    vertex  2.451695038335 0.15 0
    vertex  2.951695038335 0.65 0
  endloop
endfacet
facet normal  0 0 -1
  outer loop
    vertex  2.451695038335 0.15 0
    vertex  2.451695038335 1.15 0
    vertex  2.951695038335 0.65 0
  endloop
endfacet
facet normal  0 0 -1
  outer loop
    vertex  2.451695038335 1.15 0
    vertex  3.451695038335 1.15 0
    vertex  2.951695038335 0.65 0
  endloop
endfacet
facet normal  0 0 -1
  outer loop
    vertex  3.451695038335 1.15 0
    vertex  3.451695038335 0.15 0
    vertex  2.951695038335 0.65 0
  endloop
endfacet
endsolid
